<?xml version="1.0" encoding="utf-8"?>
<!-- Generator: Adobe Illustrator 16.0.0, SVG Export Plug-In . SVG Version: 6.00 Build 0)  -->
<!DOCTYPE svg PUBLIC "-//W3C//DTD SVG 1.1//EN" "http://www.w3.org/Graphics/SVG/1.1/DTD/svg11.dtd">
<svg version="1.1" id="Layer_1" xmlns="http://www.w3.org/2000/svg" xmlns:xlink="http://www.w3.org/1999/xlink" x="0px" y="0px"
	 width="846.938px" height="214.82px" viewBox="0 0 846.938 214.82" enable-background="new 0 0 846.938 214.82"
	 xml:space="preserve">
<g>
	<rect x="480.531" y="0.001" fill="#43B02A" width="31.587" height="172.53"/>
	<path fill="#43B02A" d="M610.477,13.375h-38.724l-50.07,66.217c-5.853,7.731-5.854,18.952-0.007,26.679l50.104,66.258h38.722
		l-60.186-79.592L610.477,13.375z"/>
	<path fill="#43B02A" d="M815.767,54.362l-31.766,86.504l-34.727-86.614l-32.634-0.074l51.614,121.357
		c-0.242,0.497-1.906,3.977-2.148,4.417c-2.752,4.957-5.855,6.472-11.237,6.46c-4.508-0.009-10.138-2.048-14.643-4.764
		l-11.544,24.771c8.779,5.2,18.013,8.4,30.411,8.4c17.969,0,30.444-9.179,39.737-33.727l48.107-126.66L815.767,54.362z"/>
	<path fill="#43B02A" d="M661.43,50.406c-34.496,0-61.231,27.965-61.231,62.459c0,34.498,26.735,62.463,61.231,62.463
		c19.719,0,37.454-6.754,50.438-21.946l-21.021-18.254c-7.358,8.613-17.972,13.147-29.149,13.147
		c-15.316,0-26.982-9.721-31.325-23.329h89.323c0,0,0.723-4.508,0.723-12.081C720.418,78.371,695.926,50.406,661.43,50.406
		 M629.941,99.927c4.552-13.154,15.379-22.47,30.364-22.47c14.99,0,27.343,9.081,30.367,22.47H629.941z"/>
	<path fill="#43B02A" d="M31.589,6.775H0V148.98c0,11.976,9.744,21.718,21.719,21.718H88.9V139.11H31.589V6.775z"/>
	<path fill="#43B02A" d="M433.005,59.873c-8.539-5.109-18.523-8.414-29.62-8.414c-33.805,0-61.211,27.728-61.211,61.935
		c0,33.965,27.027,61.532,60.503,61.917l-0.018,0.019c0.13,0,0.254-0.009,0.384-0.012c0.114,0.003,0.228,0.012,0.342,0.012
		c0.338,0,0.684-0.028,1.027-0.042c36.809-0.838,59.899-27.931,60.166-60.945l0.014,0.007V0h-31.587V59.873z M464.001,114.044
		l0.2,0.104l-0.252,0.251C463.966,114.283,463.984,114.165,464.001,114.044 M403.385,145.046c-16.927,0-30.649-14.169-30.649-31.652
		c0-17.481,13.722-31.652,30.649-31.652c16.924,0,30.648,14.17,30.648,31.652C434.033,130.877,420.309,145.046,403.385,145.046"/>
	<path fill="#43B02A" d="M287.95,51.514c-19.378,0-27.786,9.158-31.242,15.26V54.13h-31.587v118.398h31.587V104.63
		c0.312-18.472,15.924-22.496,23.474-22.496c6.781,0,20.415,2.986,20.415,23.176v67.225h30.504V94.667
		C331.101,65.58,309.883,51.514,287.95,51.514"/>
	<path fill="#43B02A" d="M154.512,50.406c-34.496,0-61.23,27.965-61.23,62.459c0,34.498,26.734,62.463,61.23,62.463
		c19.719,0,37.456-6.754,50.439-21.946l-21.02-18.254c-7.361,8.613-17.974,13.147-29.152,13.147
		c-15.314,0-26.981-9.721-31.323-23.329h89.323c0,0,0.721-4.508,0.721-12.081C213.5,78.371,189.01,50.406,154.512,50.406
		 M123.025,99.927c4.552-13.154,15.377-22.47,30.365-22.47c14.99,0,27.343,9.081,30.367,22.47H123.025z"/>
</g>
</svg>
